<svg xmlns="http://www.w3.org/2000/svg" xmlns:xlink="http://www.w3.org/1999/xlink" contentStyleType="text/css" height="1812px" preserveAspectRatio="none" style="width:1854px;height:1812px;background:#FFFFFF;" version="1.1" viewBox="0 0 1854 1812" width="1854px" zoomAndPan="magnify"><defs/><g><g class="title"><text fill="#000000" font-family="sans-serif" font-size="14" font-weight="700" lengthAdjust="spacing" textLength="291.5664" x="777.7563" y="27.9951">SleepEdit Sleep Note Authoring Flow</text></g><rect fill="#E5E7EB" height="1762.2344" rx="4" ry="4" style="stroke:#181818;stroke-width:0.5;" width="598.0352" x="243.0747" y="43.2969"/><text fill="#000000" font-family="sans-serif" font-size="13" font-weight="700" lengthAdjust="spacing" textLength="178.6738" x="452.7554" y="55.3638">SleepEdit User Interface</text><rect fill="#E5E7EB" height="1762.2344" rx="4" ry="4" style="stroke:#181818;stroke-width:0.5;" width="613.2515" x="843.1099" y="43.2969"/><text fill="#000000" font-family="sans-serif" font-size="13" font-weight="700" lengthAdjust="spacing" textLength="205.6768" x="1046.8972" y="55.3638">Shared Application Services</text><rect fill="#E5E7EB" height="1762.2344" rx="4" ry="4" style="stroke:#181818;stroke-width:0.5;" width="373.7178" x="1458.3613" y="43.2969"/><text fill="#000000" font-family="sans-serif" font-size="13" font-weight="700" lengthAdjust="spacing" textLength="118.0981" x="1586.1711" y="55.3638">Local Resources</text><rect fill="none" height="244.3281" rx="4" ry="4" style="stroke:#64748B;stroke-width:1.5;" width="887.7939" x="10" y="405.0859"/><rect fill="none" height="103.5313" rx="4" ry="4" style="stroke:#64748B;stroke-width:1.5;" width="683.7412" x="20" y="473.4844"/><rect fill="none" height="229.1953" rx="4" ry="4" style="stroke:#64748B;stroke-width:1.5;" width="834.9941" x="10" y="663.4141"/><rect fill="none" height="103.5313" rx="4" ry="4" style="stroke:#64748B;stroke-width:1.5;" width="743.3267" x="20" y="731.8125"/><rect fill="none" height="396.6641" rx="4" ry="4" style="stroke:#64748B;stroke-width:1.5;" width="1442.3613" x="20" y="935.7422"/><rect fill="none" height="133.6641" rx="4" ry="4" style="stroke:#64748B;stroke-width:1.5;" width="1818.0791" x="20" y="1418.6719"/><rect fill="none" height="104.5313" rx="4" ry="4" style="stroke:#64748B;stroke-width:1.5;" width="1630.5586" x="20" y="1566.3359"/><g class="participant-lifeline" id="part1-lifeline"><g><title>Sleep Technologist</title><rect fill="#000000" fill-opacity="0.00000" height="1670.5078" width="8" x="95.2642" y="141.0234"/><line style="stroke:#6B7280;stroke-width:0.5;stroke-dasharray:5,5;" x1="99" x2="99" y1="141.0234" y2="1811.5313"/></g></g><g class="participant-lifeline" id="part2-lifeline"><g><title>Sleep Note Editor</title><rect fill="#000000" fill-opacity="0.00000" height="1670.5078" width="8" x="307.2563" y="141.0234"/><line style="stroke:#6B7280;stroke-width:0.5;stroke-dasharray:5,5;" x1="311.0747" x2="311.0747" y1="141.0234" y2="1811.5313"/></g></g><g class="participant-lifeline" id="part3-lifeline"><g><title>Structured Sleep Note Form</title><rect fill="#000000" fill-opacity="0.00000" height="1670.5078" width="8" x="482.2944" y="141.0234"/><line style="stroke:#6B7280;stroke-width:0.5;stroke-dasharray:5,5;" x1="485.438" x2="485.438" y1="141.0234" y2="1811.5313"/></g></g><g class="participant-lifeline" id="part4-lifeline"><g><title>Browser Editing Tools</title><rect fill="#000000" fill-opacity="0.00000" height="1670.5078" width="8" x="754.3267" y="141.0234"/><line style="stroke:#6B7280;stroke-width:0.5;stroke-dasharray:5,5;" x1="757.5435" x2="757.5435" y1="141.0234" y2="1811.5313"/></g></g><g class="participant-lifeline" id="part5-lifeline"><g><title>SleepNoteService</title><rect fill="#000000" fill-opacity="0.00000" height="1670.5078" width="8" x="907.9956" y="141.0234"/><line style="stroke:#6B7280;stroke-width:0.5;stroke-dasharray:5,5;" x1="911.1099" x2="911.1099" y1="141.0234" y2="1811.5313"/></g></g><g class="participant-lifeline" id="part6-lifeline"><g><title>SleepNoteFormValidator</title><rect fill="#000000" fill-opacity="0.00000" height="1670.5078" width="8" x="1135.1904" y="141.0234"/><line style="stroke:#6B7280;stroke-width:0.5;stroke-dasharray:5,5;" x1="1138.5635" x2="1138.5635" y1="141.0234" y2="1811.5313"/></g></g><g class="participant-lifeline" id="part7-lifeline"><g><title>SleepNoteNarrativeGenerator</title><rect fill="#000000" fill-opacity="0.00000" height="1670.5078" width="8" x="1341.0894" y="141.0234"/><line style="stroke:#6B7280;stroke-width:0.5;stroke-dasharray:5,5;" x1="1344.8174" x2="1344.8174" y1="141.0234" y2="1811.5313"/></g></g><g class="participant-lifeline" id="part8-lifeline"><g><title>Sleep note configuration</title><rect fill="#000000" fill-opacity="0.00000" height="1670.5078" width="8" x="1547.46" y="141.0234"/><line style="stroke:#6B7280;stroke-width:0.5;stroke-dasharray:5,5;" x1="1551.3613" x2="1551.3613" y1="141.0234" y2="1811.5313"/></g></g><g class="participant-lifeline" id="part9-lifeline"><g><title>Vosk speech recognition</title><rect fill="#000000" fill-opacity="0.00000" height="1670.5078" width="8" x="1735.3188" y="141.0234"/><line style="stroke:#6B7280;stroke-width:0.5;stroke-dasharray:5,5;" x1="1738.5586" x2="1738.5586" y1="141.0234" y2="1811.5313"/></g></g><g class="participant participant-head" id="part1-head"><text fill="#000000" font-family="sans-serif" font-size="14" lengthAdjust="spacing" textLength="132.5283" x="30" y="137.7217">Sleep Technologist</text><ellipse cx="99.2642" cy="73.2266" fill="#E2E2F0" rx="8" ry="8" style="stroke:#181818;stroke-width:0.5;"/><path d="M99.2642,81.2266 L99.2642,108.2266 M86.2642,89.2266 L112.2642,89.2266 M99.2642,108.2266 L86.2642,123.2266 M99.2642,108.2266 L112.2642,123.2266" fill="none" style="stroke:#181818;stroke-width:0.5;"/></g><g class="participant participant-head" id="part2-head"><text fill="#000000" font-family="sans-serif" font-size="14" lengthAdjust="spacing" textLength="122.3633" x="247.0747" y="137.7217">Sleep Note Editor</text><path d="M290.7563,96.7266 L290.7563,120.7266 M290.7563,108.7266 L307.7563,108.7266" fill="none" style="stroke:#181818;stroke-width:0.5;"/><ellipse cx="319.7563" cy="108.7266" fill="#E2E2F0" rx="12" ry="12" style="stroke:#181818;stroke-width:0.5;"/></g><g class="participant participant-head" id="part3-head"><text fill="#000000" font-family="sans-serif" font-size="14" lengthAdjust="spacing" textLength="195.7129" x="385.438" y="137.7217">Structured Sleep Note Form</text><path d="M465.7944,96.7266 L465.7944,120.7266 M465.7944,108.7266 L482.7944,108.7266" fill="none" style="stroke:#181818;stroke-width:0.5;"/><ellipse cx="494.7944" cy="108.7266" fill="#E2E2F0" rx="12" ry="12" style="stroke:#181818;stroke-width:0.5;"/></g><g class="participant participant-head" id="part4-head"><text fill="#000000" font-family="sans-serif" font-size="14" lengthAdjust="spacing" textLength="151.5664" x="679.5435" y="137.7217">Browser Editing Tools</text><ellipse cx="758.3267" cy="108.7266" fill="#E2E2F0" rx="12" ry="12" style="stroke:#181818;stroke-width:0.5;"/><polygon fill="#181818" points="754.3267,96.7266,760.3267,91.7266,758.3267,96.7266,760.3267,101.7266,754.3267,96.7266" style="stroke:#181818;stroke-width:1;stroke-linejoin:miter;stroke-miterlimit:10;"/></g><g class="participant participant-head" id="part5-head"><text fill="#000000" font-family="sans-serif" font-size="14" lengthAdjust="spacing" textLength="123.7715" x="847.1099" y="137.7217">SleepNoteService</text><ellipse cx="911.9956" cy="108.7266" fill="#E2E2F0" rx="12" ry="12" style="stroke:#181818;stroke-width:0.5;"/><polygon fill="#181818" points="907.9956,96.7266,913.9956,91.7266,911.9956,96.7266,913.9956,101.7266,907.9956,96.7266" style="stroke:#181818;stroke-width:1;stroke-linejoin:miter;stroke-miterlimit:10;"/></g><g class="participant participant-head" id="part6-head"><text fill="#000000" font-family="sans-serif" font-size="14" lengthAdjust="spacing" textLength="171.2539" x="1050.5635" y="137.7217">SleepNoteFormValidator</text><ellipse cx="1139.1904" cy="108.7266" fill="#E2E2F0" rx="12" ry="12" style="stroke:#181818;stroke-width:0.5;"/><polygon fill="#181818" points="1135.1904,96.7266,1141.1904,91.7266,1139.1904,96.7266,1141.1904,101.7266,1135.1904,96.7266" style="stroke:#181818;stroke-width:1;stroke-linejoin:miter;stroke-miterlimit:10;"/></g><g class="participant participant-head" id="part7-head"><text fill="#000000" font-family="sans-serif" font-size="14" lengthAdjust="spacing" textLength="208.5439" x="1237.8174" y="137.7217">SleepNoteNarrativeGenerator</text><ellipse cx="1345.0894" cy="108.7266" fill="#E2E2F0" rx="12" ry="12" style="stroke:#181818;stroke-width:0.5;"/><polygon fill="#181818" points="1341.0894,96.7266,1347.0894,91.7266,1345.0894,96.7266,1347.0894,101.7266,1341.0894,96.7266" style="stroke:#181818;stroke-width:1;stroke-linejoin:miter;stroke-miterlimit:10;"/></g><g class="participant participant-head" id="part8-head"><text fill="#000000" font-family="sans-serif" font-size="14" lengthAdjust="spacing" textLength="172.1973" x="1462.3613" y="121.4248">Sleep note configuration</text><text fill="#000000" font-family="sans-serif" font-size="14" lengthAdjust="spacing" textLength="46.1768" x="1525.3716" y="137.7217">LiteDB</text><path d="M1533.46,72.4297 C1533.46,62.4297 1551.46,62.4297 1551.46,62.4297 C1551.46,62.4297 1569.46,62.4297 1569.46,72.4297 L1569.46,98.4297 C1569.46,108.4297 1551.46,108.4297 1551.46,108.4297 C1551.46,108.4297 1533.46,108.4297 1533.46,98.4297 L1533.46,72.4297" fill="#E2E2F0" style="stroke:#181818;stroke-width:0.5;"/><path d="M1533.46,72.4297 C1533.46,82.4297 1551.46,82.4297 1551.46,82.4297 C1551.46,82.4297 1569.46,82.4297 1569.46,72.4297" fill="none" style="stroke:#181818;stroke-width:0.5;"/></g><g class="participant participant-head" id="part9-head"><text fill="#000000" font-family="sans-serif" font-size="14" lengthAdjust="spacing" textLength="171.5205" x="1650.5586" y="137.7217">Vosk speech recognition</text><ellipse cx="1739.3188" cy="108.7266" fill="#E2E2F0" rx="12" ry="12" style="stroke:#181818;stroke-width:0.5;"/><polygon fill="#181818" points="1735.3188,96.7266,1741.3188,91.7266,1739.3188,96.7266,1741.3188,101.7266,1735.3188,96.7266" style="stroke:#181818;stroke-width:1;stroke-linejoin:miter;stroke-miterlimit:10;"/></g><rect fill="#FFFFFF" height="3" rx="4" ry="4" style="stroke:#FFFFFF;stroke-width:1;" width="1848.0791" x="0" y="171.5898"/><line style="stroke:#334155;stroke-width:1;" x1="0" x2="1848.0791" y1="171.5898" y2="171.5898"/><line style="stroke:#334155;stroke-width:1;" x1="0" x2="1848.0791" y1="174.5898" y2="174.5898"/><rect fill="#FFFFFF" height="23.1328" rx="4" ry="4" style="stroke:#334155;stroke-width:2;" width="192.0518" x="828.0137" y="161.0234"/><text fill="#111827" font-family="sans-serif" font-size="13" font-weight="700" lengthAdjust="spacing" textLength="173.5259" x="834.0137" y="177.0903">Build a Structured Note</text><g class="message" id="msg1"><polygon fill="#263238" points="299.2563,211.2891,309.2563,215.2891,299.2563,219.2891,303.2563,215.2891" style="stroke:#263238;stroke-width:1;stroke-linejoin:miter;stroke-miterlimit:10;"/><line style="stroke:#263238;stroke-width:1;" x1="99.2642" x2="305.2563" y1="215.2891" y2="215.2891"/><text fill="#000000" font-family="sans-serif" font-size="13" lengthAdjust="spacing" textLength="187.9922" x="106.2642" y="210.2231">Choose Generate Sleep Note</text></g><g class="message" id="msg2"><polygon fill="#263238" points="474.2944,240.4219,484.2944,244.4219,474.2944,248.4219,478.2944,244.4219" style="stroke:#263238;stroke-width:1;stroke-linejoin:miter;stroke-miterlimit:10;"/><line style="stroke:#263238;stroke-width:1;" x1="311.2563" x2="480.2944" y1="244.4219" y2="244.4219"/><text fill="#000000" font-family="sans-serif" font-size="13" lengthAdjust="spacing" textLength="141.7559" x="318.2563" y="239.356">Open full-screen form</text></g><g class="message" id="msg3"><polygon fill="#263238" points="899.9956,269.5547,909.9956,273.5547,899.9956,277.5547,903.9956,273.5547" style="stroke:#263238;stroke-width:1;stroke-linejoin:miter;stroke-miterlimit:10;"/><line style="stroke:#263238;stroke-width:1;" x1="486.2944" x2="905.9956" y1="273.5547" y2="273.5547"/><text fill="#000000" font-family="sans-serif" font-size="13" lengthAdjust="spacing" textLength="121.4751" x="493.2944" y="268.4888">GetConfiguration()</text></g><g class="message" id="msg4"><polygon fill="#263238" points="1539.46,298.6875,1549.46,302.6875,1539.46,306.6875,1543.46,302.6875" style="stroke:#263238;stroke-width:1;stroke-linejoin:miter;stroke-miterlimit:10;"/><line style="stroke:#263238;stroke-width:1;" x1="911.9956" x2="1545.46" y1="302.6875" y2="302.6875"/><text fill="#000000" font-family="sans-serif" font-size="13" lengthAdjust="spacing" textLength="175.1255" x="918.9956" y="297.6216">Load mask types and sizes</text></g><g class="message" id="msg5"><polygon fill="#263238" points="922.9956,327.8203,912.9956,331.8203,922.9956,335.8203,918.9956,331.8203" style="stroke:#263238;stroke-width:1;stroke-linejoin:miter;stroke-miterlimit:10;"/><line style="stroke:#263238;stroke-width:1;stroke-dasharray:2,2;" x1="916.9956" x2="1550.46" y1="331.8203" y2="331.8203"/><text fill="#000000" font-family="sans-serif" font-size="13" lengthAdjust="spacing" textLength="88.1626" x="928.9956" y="326.7544">Configuration</text></g><g class="message" id="msg6"><polygon fill="#263238" points="497.2944,356.9531,487.2944,360.9531,497.2944,364.9531,493.2944,360.9531" style="stroke:#263238;stroke-width:1;stroke-linejoin:miter;stroke-miterlimit:10;"/><line style="stroke:#263238;stroke-width:1;stroke-dasharray:2,2;" x1="491.2944" x2="910.9956" y1="360.9531" y2="360.9531"/><text fill="#000000" font-family="sans-serif" font-size="13" lengthAdjust="spacing" textLength="112.6074" x="503.2944" y="355.8872">Available choices</text></g><g class="message" id="msg7"><polygon fill="#263238" points="474.2944,386.0859,484.2944,390.0859,474.2944,394.0859,478.2944,390.0859" style="stroke:#263238;stroke-width:1;stroke-linejoin:miter;stroke-miterlimit:10;"/><line style="stroke:#263238;stroke-width:1;" x1="99.2642" x2="480.2944" y1="390.0859" y2="390.0859"/><text fill="#000000" font-family="sans-serif" font-size="13" lengthAdjust="spacing" textLength="130.7681" x="106.2642" y="385.02">Enter study findings</text></g><path d="M14,405.0859 L203.7637,405.0859 L203.7637,412.2188 L193.7637,422.2188 L10,422.2188 L10,409.0859 A4,4 0 0 1 14,405.0859" fill="#F8FAFC" style="stroke:#64748B;stroke-width:1.5;"/><rect fill="none" height="244.3281" rx="4" ry="4" style="stroke:#64748B;stroke-width:1.5;" width="887.7939" x="10" y="405.0859"/><text fill="#000000" font-family="sans-serif" font-size="13" font-weight="700" lengthAdjust="spacing" textLength="148.7637" x="25" y="418.1528">PAP Therapy Course</text><g class="message" id="msg8"><polygon fill="#263238" points="474.2944,454.4844,484.2944,458.4844,474.2944,462.4844,478.2944,458.4844" style="stroke:#263238;stroke-width:1;stroke-linejoin:miter;stroke-miterlimit:10;"/><line style="stroke:#263238;stroke-width:1;" x1="99.2642" x2="480.2944" y1="458.4844" y2="458.4844"/><text fill="#000000" font-family="sans-serif" font-size="13" lengthAdjust="spacing" textLength="204.2993" x="106.2642" y="438.2856">Select initial therapy mode and</text><text fill="#000000" font-family="sans-serif" font-size="13" lengthAdjust="spacing" textLength="146.6499" x="106.2642" y="453.4185">mode-specific settings</text></g><path d="M24,473.4844 L89.4512,473.4844 L89.4512,480.6172 L79.4512,490.6172 L20,490.6172 L20,477.4844 A4,4 0 0 1 24,473.4844" fill="#F8FAFC" style="stroke:#64748B;stroke-width:1.5;"/><rect fill="none" height="103.5313" rx="4" ry="4" style="stroke:#64748B;stroke-width:1.5;" width="683.7412" x="20" y="473.4844"/><text fill="#000000" font-family="sans-serif" font-size="13" font-weight="700" lengthAdjust="spacing" textLength="24.4512" x="35" y="486.5513">opt</text><text fill="#000000" font-family="sans-serif" font-size="11" font-weight="700" lengthAdjust="spacing" textLength="261.5669" x="104.4512" y="485.6948">[Therapy mode changes during the study]</text><g class="message" id="msg9"><polygon fill="#263238" points="474.2944,507.75,484.2944,511.75,474.2944,515.75,478.2944,511.75" style="stroke:#263238;stroke-width:1;stroke-linejoin:miter;stroke-miterlimit:10;"/><line style="stroke:#263238;stroke-width:1;" x1="99.2642" x2="480.2944" y1="511.75" y2="511.75"/><text fill="#000000" font-family="sans-serif" font-size="13" lengthAdjust="spacing" textLength="178.9658" x="106.2642" y="506.6841">Add the next therapy stage</text></g><g class="message" id="msg10"><line style="stroke:#263238;stroke-width:1;" x1="486.2944" x2="528.2944" y1="556.0156" y2="556.0156"/><line style="stroke:#263238;stroke-width:1;" x1="528.2944" x2="528.2944" y1="556.0156" y2="569.0156"/><line style="stroke:#263238;stroke-width:1;" x1="487.2944" x2="528.2944" y1="569.0156" y2="569.0156"/><polygon fill="#263238" points="497.2944,565.0156,487.2944,569.0156,497.2944,573.0156,493.2944,569.0156" style="stroke:#263238;stroke-width:1;stroke-linejoin:miter;stroke-miterlimit:10;"/><text fill="#000000" font-family="sans-serif" font-size="13" lengthAdjust="spacing" textLength="191.9912" x="493.2944" y="535.8169">Require a different mode and</text><text fill="#000000" font-family="sans-serif" font-size="13" lengthAdjust="spacing" textLength="198.4468" x="493.2944" y="550.9497">reason for the therapy change</text></g><path d="M491,593.0156 L491,640.0156 A4,4 0 0 0 495,644.0156 L883,644.0156 A4,4 0 0 0 887,640.0156 L887,599.0156 L877,589.0156 L495,589.0156 A4,4 0 0 0 491,593.0156" fill="#FEFFDD" style="stroke:#181818;stroke-width:0.5;"/><path d="M877,589.0156 L877,597.0156 A2,2 0 0 0 879,599.0156 L887,599.0156 L877,589.0156" fill="#FEFFDD" style="stroke:#181818;stroke-width:0.5;"/><text fill="#000000" font-family="sans-serif" font-size="13" lengthAdjust="spacing" textLength="314.3042" x="497" y="606.0825">Changing a selected mode replaces that stage's</text><text fill="#000000" font-family="sans-serif" font-size="13" lengthAdjust="spacing" textLength="375.7939" x="497" y="621.2153">mode-specific settings and removes later therapy stages.</text><text fill="#000000" font-family="sans-serif" font-size="13" lengthAdjust="spacing" textLength="360.1597" x="497" y="636.3481">Initial-to-final pressure titration remains within a stage.</text><path d="M14,663.4141 L304.1519,663.4141 L304.1519,670.5469 L294.1519,680.5469 L10,680.5469 L10,667.4141 A4,4 0 0 1 14,663.4141" fill="#F8FAFC" style="stroke:#64748B;stroke-width:1.5;"/><rect fill="none" height="229.1953" rx="4" ry="4" style="stroke:#64748B;stroke-width:1.5;" width="834.9941" x="10" y="663.4141"/><text fill="#000000" font-family="sans-serif" font-size="13" font-weight="700" lengthAdjust="spacing" textLength="249.1519" x="25" y="676.481">PAP Equipment Course (separate)</text><g class="message" id="msg11"><polygon fill="#263238" points="474.2944,712.8125,484.2944,716.8125,474.2944,720.8125,478.2944,716.8125" style="stroke:#263238;stroke-width:1;stroke-linejoin:miter;stroke-miterlimit:10;"/><line style="stroke:#263238;stroke-width:1;" x1="99.2642" x2="480.2944" y1="716.8125" y2="716.8125"/><text fill="#000000" font-family="sans-serif" font-size="13" lengthAdjust="spacing" textLength="194.6318" x="106.2642" y="696.6138">Record mask type, mask size,</text><text fill="#000000" font-family="sans-serif" font-size="13" lengthAdjust="spacing" textLength="208.749" x="106.2642" y="711.7466">chin strap, and heated humidity</text></g><path d="M24,731.8125 L89.4512,731.8125 L89.4512,738.9453 L79.4512,748.9453 L20,748.9453 L20,735.8125 A4,4 0 0 1 24,731.8125" fill="#F8FAFC" style="stroke:#64748B;stroke-width:1.5;"/><rect fill="none" height="103.5313" rx="4" ry="4" style="stroke:#64748B;stroke-width:1.5;" width="743.3267" x="20" y="731.8125"/><text fill="#000000" font-family="sans-serif" font-size="13" font-weight="700" lengthAdjust="spacing" textLength="24.4512" x="35" y="744.8794">opt</text><text fill="#000000" font-family="sans-serif" font-size="11" font-weight="700" lengthAdjust="spacing" textLength="267.9854" x="104.4512" y="744.0229">[PAP equipment changes during the study]</text><g class="message" id="msg12"><polygon fill="#263238" points="474.2944,766.0781,484.2944,770.0781,474.2944,774.0781,478.2944,770.0781" style="stroke:#263238;stroke-width:1;stroke-linejoin:miter;stroke-miterlimit:10;"/><line style="stroke:#263238;stroke-width:1;" x1="99.2642" x2="480.2944" y1="770.0781" y2="770.0781"/><text fill="#000000" font-family="sans-serif" font-size="13" lengthAdjust="spacing" textLength="198.7261" x="106.2642" y="765.0122">Add the next equipment stage</text></g><g class="message" id="msg13"><line style="stroke:#263238;stroke-width:1;" x1="486.2944" x2="528.2944" y1="814.3438" y2="814.3438"/><line style="stroke:#263238;stroke-width:1;" x1="528.2944" x2="528.2944" y1="814.3438" y2="827.3438"/><line style="stroke:#263238;stroke-width:1;" x1="487.2944" x2="528.2944" y1="827.3438" y2="827.3438"/><polygon fill="#263238" points="497.2944,823.3438,487.2944,827.3438,497.2944,831.3438,493.2944,827.3438" style="stroke:#263238;stroke-width:1;stroke-linejoin:miter;stroke-miterlimit:10;"/><text fill="#000000" font-family="sans-serif" font-size="13" lengthAdjust="spacing" textLength="258.0322" x="493.2944" y="794.145">Require at least one equipment change</text><text fill="#000000" font-family="sans-serif" font-size="13" lengthAdjust="spacing" textLength="184.4121" x="493.2944" y="809.2778">and a reason for the change</text></g><path d="M491,851.3438 L491,883.3438 A4,4 0 0 0 495,887.3438 L830,887.3438 A4,4 0 0 0 834,883.3438 L834,857.3438 L824,847.3438 L495,847.3438 A4,4 0 0 0 491,851.3438" fill="#FEFFDD" style="stroke:#181818;stroke-width:0.5;"/><path d="M824,847.3438 L824,855.3438 A2,2 0 0 0 826,857.3438 L834,857.3438 L824,847.3438" fill="#FEFFDD" style="stroke:#181818;stroke-width:0.5;"/><text fill="#000000" font-family="sans-serif" font-size="13" lengthAdjust="spacing" textLength="322.9941" x="497" y="864.4106">A later equipment stage must change mask type,</text><text fill="#000000" font-family="sans-serif" font-size="13" lengthAdjust="spacing" textLength="274.2568" x="497" y="879.5435">mask size, chin strap, or heated humidity.</text><g class="message" id="msg14"><polygon fill="#263238" points="1127.1904,916.7422,1137.1904,920.7422,1127.1904,924.7422,1131.1904,920.7422" style="stroke:#263238;stroke-width:1;stroke-linejoin:miter;stroke-miterlimit:10;"/><line style="stroke:#263238;stroke-width:1;" x1="486.2944" x2="1133.1904" y1="920.7422" y2="920.7422"/><text fill="#000000" font-family="sans-serif" font-size="13" lengthAdjust="spacing" textLength="127.4927" x="493.2944" y="915.6763">Validate(form data)</text></g><path d="M24,935.7422 L84.4429,935.7422 L84.4429,942.875 L74.4429,952.875 L20,952.875 L20,939.7422 A4,4 0 0 1 24,935.7422" fill="#F8FAFC" style="stroke:#64748B;stroke-width:1.5;"/><rect fill="none" height="396.6641" rx="4" ry="4" style="stroke:#64748B;stroke-width:1.5;" width="1442.3613" x="20" y="935.7422"/><text fill="#000000" font-family="sans-serif" font-size="13" font-weight="700" lengthAdjust="spacing" textLength="19.4429" x="35" y="948.8091">alt</text><text fill="#000000" font-family="sans-serif" font-size="11" font-weight="700" lengthAdjust="spacing" textLength="137.8169" x="99.4429" y="947.9526">[Form validation fails]</text><g class="message" id="msg15"><polygon fill="#263238" points="497.2944,970.0078,487.2944,974.0078,497.2944,978.0078,493.2944,974.0078" style="stroke:#263238;stroke-width:1;stroke-linejoin:miter;stroke-miterlimit:10;"/><line style="stroke:#263238;stroke-width:1;stroke-dasharray:2,2;" x1="491.2944" x2="1138.1904" y1="974.0078" y2="974.0078"/><text fill="#000000" font-family="sans-serif" font-size="13" lengthAdjust="spacing" textLength="271.9907" x="503.2944" y="968.9419">Missing, repeated, or invalid stage details</text></g><g class="message" id="msg16"><polygon fill="#263238" points="110.2642,999.1406,100.2642,1003.1406,110.2642,1007.1406,106.2642,1003.1406" style="stroke:#263238;stroke-width:1;stroke-linejoin:miter;stroke-miterlimit:10;"/><line style="stroke:#263238;stroke-width:1;stroke-dasharray:2,2;" x1="104.2642" x2="485.2944" y1="1003.1406" y2="1003.1406"/><text fill="#000000" font-family="sans-serif" font-size="13" lengthAdjust="spacing" textLength="245.4131" x="116.2642" y="998.0747">Keep form open and show field errors</text></g><line style="stroke:#64748B;stroke-width:1;stroke-dasharray:2,2;" x1="20" x2="1462.3613" y1="1012.1406" y2="1012.1406"/><text fill="#000000" font-family="sans-serif" font-size="11" font-weight="700" lengthAdjust="spacing" textLength="168.2817" x="25" y="1022.3511">[Form validation succeeds]</text><g class="message" id="msg17"><polygon fill="#263238" points="497.2944,1043.0781,487.2944,1047.0781,497.2944,1051.0781,493.2944,1047.0781" style="stroke:#263238;stroke-width:1;stroke-linejoin:miter;stroke-miterlimit:10;"/><line style="stroke:#263238;stroke-width:1;stroke-dasharray:2,2;" x1="491.2944" x2="1138.1904" y1="1047.0781" y2="1047.0781"/><text fill="#000000" font-family="sans-serif" font-size="13" lengthAdjust="spacing" textLength="32.335" x="503.2944" y="1042.0122">Valid</text></g><g class="message" id="msg18"><polygon fill="#263238" points="899.9956,1072.2109,909.9956,1076.2109,899.9956,1080.2109,903.9956,1076.2109" style="stroke:#263238;stroke-width:1;stroke-linejoin:miter;stroke-miterlimit:10;"/><line style="stroke:#263238;stroke-width:1;" x1="486.2944" x2="905.9956" y1="1076.2109" y2="1076.2109"/><text fill="#000000" font-family="sans-serif" font-size="13" lengthAdjust="spacing" textLength="165.585" x="493.2944" y="1071.145">GenerateNote(form data)</text></g><g class="message" id="msg19"><polygon fill="#263238" points="1127.1904,1101.3438,1137.1904,1105.3438,1127.1904,1109.3438,1131.1904,1105.3438" style="stroke:#263238;stroke-width:1;stroke-linejoin:miter;stroke-miterlimit:10;"/><line style="stroke:#263238;stroke-width:1;" x1="911.9956" x2="1133.1904" y1="1105.3438" y2="1105.3438"/><text fill="#000000" font-family="sans-serif" font-size="13" lengthAdjust="spacing" textLength="203.1948" x="918.9956" y="1100.2778">Revalidate at service boundary</text></g><g class="message" id="msg20"><polygon fill="#263238" points="922.9956,1130.4766,912.9956,1134.4766,922.9956,1138.4766,918.9956,1134.4766" style="stroke:#263238;stroke-width:1;stroke-linejoin:miter;stroke-miterlimit:10;"/><line style="stroke:#263238;stroke-width:1;stroke-dasharray:2,2;" x1="916.9956" x2="1138.1904" y1="1134.4766" y2="1134.4766"/><text fill="#000000" font-family="sans-serif" font-size="13" lengthAdjust="spacing" textLength="32.335" x="928.9956" y="1129.4106">Valid</text></g><g class="message" id="msg21"><polygon fill="#263238" points="1333.0894,1159.6094,1343.0894,1163.6094,1333.0894,1167.6094,1337.0894,1163.6094" style="stroke:#263238;stroke-width:1;stroke-linejoin:miter;stroke-miterlimit:10;"/><line style="stroke:#263238;stroke-width:1;" x1="911.9956" x2="1339.0894" y1="1163.6094" y2="1163.6094"/><text fill="#000000" font-family="sans-serif" font-size="13" lengthAdjust="spacing" textLength="134.8115" x="918.9956" y="1158.5435">Generate(form data)</text></g><g class="message" id="msg22"><polygon fill="#263238" points="922.9956,1203.875,912.9956,1207.875,922.9956,1211.875,918.9956,1207.875" style="stroke:#263238;stroke-width:1;stroke-linejoin:miter;stroke-miterlimit:10;"/><line style="stroke:#263238;stroke-width:1;stroke-dasharray:2,2;" x1="916.9956" x2="1344.0894" y1="1207.875" y2="1207.875"/><text fill="#000000" font-family="sans-serif" font-size="13" lengthAdjust="spacing" textLength="206.6416" x="928.9956" y="1187.6763">Clinical narrative with reasoned</text><text fill="#000000" font-family="sans-serif" font-size="13" lengthAdjust="spacing" textLength="212.4116" x="928.9956" y="1202.8091">therapy and equipment changes</text></g><g class="message" id="msg23"><polygon fill="#263238" points="497.2944,1233.0078,487.2944,1237.0078,497.2944,1241.0078,493.2944,1237.0078" style="stroke:#263238;stroke-width:1;stroke-linejoin:miter;stroke-miterlimit:10;"/><line style="stroke:#263238;stroke-width:1;stroke-dasharray:2,2;" x1="491.2944" x2="910.9956" y1="1237.0078" y2="1237.0078"/><text fill="#000000" font-family="sans-serif" font-size="13" lengthAdjust="spacing" textLength="194.2573" x="503.2944" y="1231.9419">Narrative and UTC timestamp</text></g><g class="message" id="msg24"><polygon fill="#263238" points="110.2642,1262.1406,100.2642,1266.1406,110.2642,1270.1406,106.2642,1266.1406" style="stroke:#263238;stroke-width:1;stroke-linejoin:miter;stroke-miterlimit:10;"/><line style="stroke:#263238;stroke-width:1;stroke-dasharray:2,2;" x1="104.2642" x2="485.2944" y1="1266.1406" y2="1266.1406"/><text fill="#000000" font-family="sans-serif" font-size="13" lengthAdjust="spacing" textLength="239.167" x="116.2642" y="1261.0747">Show generated narrative for review</text></g><g class="message" id="msg25"><polygon fill="#263238" points="474.2944,1291.2734,484.2944,1295.2734,474.2944,1299.2734,478.2944,1295.2734" style="stroke:#263238;stroke-width:1;stroke-linejoin:miter;stroke-miterlimit:10;"/><line style="stroke:#263238;stroke-width:1;" x1="99.2642" x2="480.2944" y1="1295.2734" y2="1295.2734"/><text fill="#000000" font-family="sans-serif" font-size="13" lengthAdjust="spacing" textLength="108.9258" x="106.2642" y="1290.2075">Insert into Editor</text></g><g class="message" id="msg26"><polygon fill="#263238" points="322.2563,1320.4063,312.2563,1324.4063,322.2563,1328.4063,318.2563,1324.4063" style="stroke:#263238;stroke-width:1;stroke-linejoin:miter;stroke-miterlimit:10;"/><line style="stroke:#263238;stroke-width:1;" x1="316.2563" x2="485.2944" y1="1324.4063" y2="1324.4063"/><text fill="#000000" font-family="sans-serif" font-size="13" lengthAdjust="spacing" textLength="140.3086" x="328.2563" y="1319.3403">Completed(narrative)</text></g><rect fill="#FFFFFF" height="3" rx="4" ry="4" style="stroke:#FFFFFF;stroke-width:1;" width="1848.0791" x="0" y="1359.9727"/><line style="stroke:#334155;stroke-width:1;" x1="0" x2="1848.0791" y1="1359.9727" y2="1359.9727"/><line style="stroke:#334155;stroke-width:1;" x1="0" x2="1848.0791" y1="1362.9727" y2="1362.9727"/><rect fill="#FFFFFF" height="23.1328" rx="4" ry="4" style="stroke:#334155;stroke-width:2;" width="197.2124" x="825.4333" y="1349.4063"/><text fill="#111827" font-family="sans-serif" font-size="13" font-weight="700" lengthAdjust="spacing" textLength="178.6865" x="831.4333" y="1365.4731">Refine and Use the Note</text><g class="message" id="msg27"><polygon fill="#263238" points="299.2563,1399.6719,309.2563,1403.6719,299.2563,1407.6719,303.2563,1403.6719" style="stroke:#263238;stroke-width:1;stroke-linejoin:miter;stroke-miterlimit:10;"/><line style="stroke:#263238;stroke-width:1;" x1="99.2642" x2="305.2563" y1="1403.6719" y2="1403.6719"/><text fill="#000000" font-family="sans-serif" font-size="13" lengthAdjust="spacing" textLength="138.2266" x="106.2642" y="1398.606">Type and format text</text></g><path d="M24,1418.6719 L89.4512,1418.6719 L89.4512,1425.8047 L79.4512,1435.8047 L20,1435.8047 L20,1422.6719 A4,4 0 0 1 24,1418.6719" fill="#F8FAFC" style="stroke:#64748B;stroke-width:1.5;"/><rect fill="none" height="133.6641" rx="4" ry="4" style="stroke:#64748B;stroke-width:1.5;" width="1818.0791" x="20" y="1418.6719"/><text fill="#000000" font-family="sans-serif" font-size="13" font-weight="700" lengthAdjust="spacing" textLength="24.4512" x="35" y="1431.7388">opt</text><text fill="#000000" font-family="sans-serif" font-size="11" font-weight="700" lengthAdjust="spacing" textLength="120.0977" x="104.4512" y="1430.8823">[Dictation enabled]</text><g class="message" id="msg28"><polygon fill="#263238" points="746.3267,1452.9375,756.3267,1456.9375,746.3267,1460.9375,750.3267,1456.9375" style="stroke:#263238;stroke-width:1;stroke-linejoin:miter;stroke-miterlimit:10;"/><line style="stroke:#263238;stroke-width:1;" x1="99.2642" x2="752.3267" y1="1456.9375" y2="1456.9375"/><text fill="#000000" font-family="sans-serif" font-size="13" lengthAdjust="spacing" textLength="113.293" x="106.2642" y="1451.8716">Start microphone</text></g><g class="message" id="msg29"><polygon fill="#263238" points="1727.3188,1482.0703,1737.3188,1486.0703,1727.3188,1490.0703,1731.3188,1486.0703" style="stroke:#263238;stroke-width:1;stroke-linejoin:miter;stroke-miterlimit:10;"/><line style="stroke:#263238;stroke-width:1;" x1="758.3267" x2="1733.3188" y1="1486.0703" y2="1486.0703"/><text fill="#000000" font-family="sans-serif" font-size="13" lengthAdjust="spacing" textLength="135.7129" x="765.3267" y="1481.0044">Process audio locally</text></g><g class="message" id="msg30"><polygon fill="#263238" points="769.3267,1511.2031,759.3267,1515.2031,769.3267,1519.2031,765.3267,1515.2031" style="stroke:#263238;stroke-width:1;stroke-linejoin:miter;stroke-miterlimit:10;"/><line style="stroke:#263238;stroke-width:1;stroke-dasharray:2,2;" x1="763.3267" x2="1738.3188" y1="1515.2031" y2="1515.2031"/><text fill="#000000" font-family="sans-serif" font-size="13" lengthAdjust="spacing" textLength="105.3267" x="775.3267" y="1510.1372">Recognized text</text></g><g class="message" id="msg31"><polygon fill="#263238" points="322.2563,1540.3359,312.2563,1544.3359,322.2563,1548.3359,318.2563,1544.3359" style="stroke:#263238;stroke-width:1;stroke-linejoin:miter;stroke-miterlimit:10;"/><line style="stroke:#263238;stroke-width:1;" x1="316.2563" x2="757.3267" y1="1544.3359" y2="1544.3359"/><text fill="#000000" font-family="sans-serif" font-size="13" lengthAdjust="spacing" textLength="124.8584" x="328.2563" y="1539.27">Insert dictated text</text></g><path d="M24,1566.3359 L89.4512,1566.3359 L89.4512,1573.4688 L79.4512,1583.4688 L20,1583.4688 L20,1570.3359 A4,4 0 0 1 24,1566.3359" fill="#F8FAFC" style="stroke:#64748B;stroke-width:1.5;"/><rect fill="none" height="104.5313" rx="4" ry="4" style="stroke:#64748B;stroke-width:1.5;" width="1630.5586" x="20" y="1566.3359"/><text fill="#000000" font-family="sans-serif" font-size="13" font-weight="700" lengthAdjust="spacing" textLength="24.4512" x="35" y="1579.4028">opt</text><text fill="#000000" font-family="sans-serif" font-size="11" font-weight="700" lengthAdjust="spacing" textLength="169.3345" x="104.4512" y="1578.5464">[Adjust local mask choices]</text><g class="message" id="msg32"><polygon fill="#263238" points="474.2944,1600.6016,484.2944,1604.6016,474.2944,1608.6016,478.2944,1604.6016" style="stroke:#263238;stroke-width:1;stroke-linejoin:miter;stroke-miterlimit:10;"/><line style="stroke:#263238;stroke-width:1;" x1="99.2642" x2="480.2944" y1="1604.6016" y2="1604.6016"/><text fill="#000000" font-family="sans-serif" font-size="13" lengthAdjust="spacing" textLength="215.6172" x="106.2642" y="1599.5356">Add or remove mask type or size</text></g><g class="message" id="msg33"><polygon fill="#263238" points="899.9956,1629.7344,909.9956,1633.7344,899.9956,1637.7344,903.9956,1633.7344" style="stroke:#263238;stroke-width:1;stroke-linejoin:miter;stroke-miterlimit:10;"/><line style="stroke:#263238;stroke-width:1;" x1="486.2944" x2="905.9956" y1="1633.7344" y2="1633.7344"/><text fill="#000000" font-family="sans-serif" font-size="13" lengthAdjust="spacing" textLength="137.4458" x="493.2944" y="1628.6685">Update configuration</text></g><g class="message" id="msg34"><polygon fill="#263238" points="1539.46,1658.8672,1549.46,1662.8672,1539.46,1666.8672,1543.46,1662.8672" style="stroke:#263238;stroke-width:1;stroke-linejoin:miter;stroke-miterlimit:10;"/><line style="stroke:#263238;stroke-width:1;" x1="911.9956" x2="1545.46" y1="1662.8672" y2="1662.8672"/><text fill="#000000" font-family="sans-serif" font-size="13" lengthAdjust="spacing" textLength="133.8022" x="918.9956" y="1657.8013">Persist configuration</text></g><g class="message" id="msg35"><polygon fill="#263238" points="746.3267,1695,756.3267,1699,746.3267,1703,750.3267,1699" style="stroke:#263238;stroke-width:1;stroke-linejoin:miter;stroke-miterlimit:10;"/><line style="stroke:#263238;stroke-width:1;" x1="99.2642" x2="752.3267" y1="1699" y2="1699"/><text fill="#000000" font-family="sans-serif" font-size="13" lengthAdjust="spacing" textLength="30.1323" x="106.2642" y="1693.9341">Print</text></g><g class="message" id="msg36"><polygon fill="#263238" points="110.2642,1724.1328,100.2642,1728.1328,110.2642,1732.1328,106.2642,1728.1328" style="stroke:#263238;stroke-width:1;stroke-linejoin:miter;stroke-miterlimit:10;"/><line style="stroke:#263238;stroke-width:1;stroke-dasharray:2,2;" x1="104.2642" x2="757.3267" y1="1728.1328" y2="1728.1328"/><text fill="#000000" font-family="sans-serif" font-size="13" lengthAdjust="spacing" textLength="143.3047" x="116.2642" y="1723.0669">Browser print preview</text></g><path d="M242,1745.1328 L242,1792.1328 A4,4 0 0 0 246,1796.1328 L823,1796.1328 A4,4 0 0 0 827,1792.1328 L827,1751.1328 L817,1741.1328 L246,1741.1328 A4,4 0 0 0 242,1745.1328" fill="#FEFFDD" style="stroke:#181818;stroke-width:0.5;"/><path d="M817,1741.1328 L817,1749.1328 A2,2 0 0 0 819,1751.1328 L827,1751.1328 L817,1741.1328" fill="#FEFFDD" style="stroke:#181818;stroke-width:0.5;"/><text fill="#000000" font-family="sans-serif" font-size="13" lengthAdjust="spacing" textLength="327.3423" x="366.3464" y="1758.1997">The working note is edited in the browser surface.</text><text fill="#000000" font-family="sans-serif" font-size="13" lengthAdjust="spacing" textLength="320.144" x="366.3464" y="1773.3325">Medication, protocol, and AI actions are separate</text><text fill="#000000" font-family="sans-serif" font-size="13" lengthAdjust="spacing" textLength="303.4561" x="366.3464" y="1788.4653">explicit tools that can insert reviewed content.</text></g></svg>